<?xml version="1.0" encoding="utf-8"?>
<!-- Generator: Adobe Illustrator 26.2.1, SVG Export Plug-In . SVG Version: 6.00 Build 0)  -->
<svg version="1.1" id="Layer_1" xmlns="http://www.w3.org/2000/svg" xmlns:xlink="http://www.w3.org/1999/xlink" x="0px" y="0px"
	 viewBox="0 0 878.8 419" style="enable-background:new 0 0 878.8 419;" xml:space="preserve">
<style type="text/css">
	.st0{fill:#3A3441;}
	.st1{fill:#FBB03B;}
</style>
<path class="st0" d="M155,189.7c-22.5,0-38.1,16.6-38.1,39.8s15.9,39.8,38.8,39.8c14.2,0,25.6-8,31.1-20.8l52.6,17.6
	c-13.1,33.6-43.9,55.4-83.7,55.4c-55,0-94.1-38.1-94.1-92s38.8-92,93.4-92c39.8,0,70.9,21.1,83.7,54.3l-52.6,17.6
	C180.6,197.3,168.4,189.5,155,189.7z"/>
<rect x="263.5" y="143" class="st0" width="55.4" height="173"/>
<path class="st0" d="M369.6,263.4v-75.8h-26.6V144h26.6V99h55.4v45h38.8v43.6h-38.7v62.7c0,17.3,5.2,24.2,15.9,24.2
	c4.9,0,12.8-3.5,18-6.6l18.3,40.5c-11.4,6.9-30.1,13.1-46.4,13.1C389.6,321.5,369.6,301.1,369.6,263.4z"/>
<path class="st0" d="M501.2,137.7h55.3v33c14.2-22.1,37.7-33.2,61.2-33.2l-0.3,54c-31.8,0-60.5,10-60.5,31.1h-0.3v93.1h-55.3V137.7z
	"/>
<path class="st1" d="M231.4,60.7c0.2,9.6,2.5,18.9,6.9,27.4c2.4,4.5,16.7,30.6,45.2,32.3c27,1.6,43.9-19.9,45.4-21.9L231.4,60.7z"/>
<path class="st0" d="M761.9,138.3l-33.7,86.4l-34-86.4h-56.3l62.8,146.9l-0.1,0.2l-4.4,8.5c-3.4,6.8-5.4,10.9-13.6,10.9
	c-4.4,0-10.2-2-15.6-5.8l-22.1,45.1c10.9,7.1,25.1,14.2,39.7,14.2c40,0,51.2-26.5,67.2-63.5l0.8-2.1l65.7-154.5H761.9z"/>
</svg>
