<svg id="Layer_1" data-name="Layer 1" xmlns="http://www.w3.org/2000/svg" viewBox="0 0 958.2 467.79"><defs><style>.cls-1{fill:#f25a5a;}.cls-2{fill:#fbb03b;}</style></defs><path class="cls-1" d="M194.2,214.11c-22.49,0-38.06,16.61-38.06,39.79s15.92,39.79,38.75,39.79c14.19,0,25.61-8,31.14-20.76l52.59,17.65c-13.15,33.56-43.94,55.36-83.73,55.36-55,0-94.11-38.06-94.11-92s38.76-92,93.42-92c39.79,0,70.93,21.1,83.73,54.32l-52.59,17.64A33.62,33.62,0,0,0,194.2,214.11Z"/><rect class="cls-1" x="302.69" y="167.42" width="55.36" height="172.98"/><path class="cls-1" d="M408.75,287.81V212H382.11V168.4h26.64v-45H464.1v45h38.76V212H464.1v62.66c0,17.3,5.19,24.22,15.92,24.22,4.84,0,12.8-3.46,18-6.57l18.34,40.48c-11.42,6.92-30.1,13.15-46.36,13.15C428.81,345.94,408.75,325.52,408.75,287.81Z"/><path class="cls-1" d="M540.41,162.06h55.36v33C610,172.94,633.48,161.87,657,161.87l-.34,54c-31.84,0-60.55,10-60.55,31.14h-.35v93.07H540.41Z"/><path class="cls-2" d="M270.6,85.06a62.3,62.3,0,0,0,6.9,27.44c2.37,4.55,16.71,30.58,45.21,32.3,27,1.62,43.94-19.93,45.42-21.88Z"/><path class="cls-1" d="M801.09,162.68,767.4,249.06l-34-86.36H677.07l62.78,146.91-.09.17-4.41,8.49c-3.39,6.78-5.43,10.85-13.57,10.85-4.41,0-10.18-2-15.61-5.76l-22.06,45.12c10.86,7.13,25.11,14.25,39.7,14.25,40,0,51.24-26.46,67.18-63.45l.77-2.14,65.65-154.46Z"/></svg>